<?xml version="1.0" standalone="no"?>
<!DOCTYPE svg PUBLIC "-//W3C//DTD SVG 20010904//EN"
 "http://www.w3.org/TR/2001/REC-SVG-20010904/DTD/svg10.dtd">
<svg version="1.0" xmlns="http://www.w3.org/2000/svg"
 width="1379.000000pt" height="1710.000000pt" viewBox="0 0 1379.000000 1710.000000"
 preserveAspectRatio="xMidYMid meet">

<g transform="translate(0.000000,1710.000000) scale(0.100000,-0.100000)"
fill="#000000" stroke="none">
<path d="M6635 16973 c-1014 -43 -2192 -272 -3336 -649 -587 -192 -1001 -356
-1726 -679 l-33 -15 0 -87 c0 -248 -61 -436 -218 -678 -120 -184 -326 -409
-487 -530 -98 -74 -267 -161 -326 -169 -32 -4 -110 8 -277 42 l-232 48 1 -61
c0 -33 19 -1187 42 -2565 33 -1939 40 -2593 35 -2895 -4 -214 -3 -1081 2
-1925 10 -1655 11 -1669 66 -1951 142 -732 519 -1395 1154 -2029 452 -453 979
-843 1680 -1244 250 -143 870 -452 1155 -576 815 -354 1651 -642 2503 -861
l237 -61 195 47 c254 62 611 163 930 264 1111 349 2162 806 3000 1304 1070
635 1832 1354 2269 2139 229 412 366 835 416 1288 12 109 17 431 25 1685 5
853 6 1721 2 1930 -5 292 3 971 35 2939 24 1408 41 2562 38 2564 -2 3 -111
-16 -241 -42 -273 -55 -269 -55 -416 21 -304 156 -648 542 -796 893 -58 137
-74 207 -81 363 l-6 139 -175 83 c-765 361 -1746 701 -2701 934 -967 237
-2014 365 -2734 334z m555 -43 c1075 -59 2192 -284 3380 -679 580 -194 1075
-389 1496 -591 l152 -72 5 -152 c4 -137 7 -159 36 -241 87 -248 241 -482 465
-709 170 -172 345 -294 490 -341 l86 -28 225 45 225 45 -1 -76 c0 -42 -19
-1183 -42 -2536 -29 -1706 -40 -2541 -35 -2725 9 -338 -1 -3087 -12 -3445 -6
-178 -16 -317 -30 -410 -195 -1319 -1200 -2488 -2981 -3466 -998 -548 -2393
-1082 -3606 -1379 l-162 -40 -203 50 c-856 215 -1848 561 -2672 932 -229 103
-704 341 -906 453 -1098 611 -1904 1300 -2393 2046 -314 478 -500 981 -563
1524 -18 154 -40 3095 -27 3640 6 288 0 852 -34 2820 -23 1353 -42 2494 -42
2536 l-1 76 225 -45 225 -45 86 28 c293 95 703 503 884 880 88 183 102 239
109 419 l6 158 155 67 c85 37 214 94 285 125 546 243 1331 520 1967 695 1184
326 2357 487 3208 441z"/>
<path d="M6600 16580 c-1257 -68 -2682 -400 -4060 -947 -257 -102 -598 -251
-606 -265 -4 -6 -13 -47 -21 -92 -43 -250 -203 -572 -414 -833 -98 -122 -323
-341 -441 -429 -199 -149 -395 -233 -566 -242 l-92 -5 0 -31 c0 -17 16 -956
35 -2086 33 -1900 36 -2189 36 -3835 0 -1904 8 -2564 33 -2731 51 -338 132
-595 286 -909 292 -597 760 -1125 1460 -1649 863 -646 2021 -1217 3400 -1676
412 -138 929 -289 1215 -356 11 -3 130 24 265 60 1207 320 2401 783 3330 1292
982 537 1707 1120 2184 1754 358 476 559 942 642 1485 25 166 33 824 33 2735
0 1652 3 1937 36 3835 19 1128 35 2064 35 2081 l0 31 -92 5 c-171 9 -367 93
-566 242 -118 88 -343 307 -441 429 -206 255 -370 581 -411 817 -6 36 -13 75
-16 87 -5 28 -27 39 -292 152 -1089 465 -2368 829 -3457 986 -554 80 -1130
116 -1515 95z m735 -50 c1001 -73 2033 -291 3150 -665 431 -144 882 -318 1229
-472 l110 -49 13 -79 c112 -660 888 -1490 1435 -1532 l78 -6 0 -66 c-1 -36
-17 -1076 -38 -2311 -27 -1634 -36 -2354 -31 -2645 4 -220 3 -1077 -2 -1905
-8 -1578 -9 -1600 -54 -1840 -152 -805 -663 -1563 -1515 -2245 -482 -386 -998
-706 -1670 -1039 -899 -445 -1952 -834 -2968 -1095 l-193 -50 -222 59 c-1281
339 -2546 843 -3522 1405 -1225 705 -2045 1523 -2400 2394 -108 265 -175 533
-205 816 -13 127 -31 2973 -21 3510 5 287 -3 981 -31 2635 -20 1235 -37 2275
-38 2311 l0 66 78 6 c352 27 828 389 1154 877 133 200 252 478 281 656 l12 77
75 34 c161 74 526 224 755 311 1250 472 2545 770 3650 842 94 6 195 12 225 14
89 6 513 -3 665 -14z"/>
<path d="M6435 15644 c-1118 -59 -2285 -281 -3480 -663 -235 -75 -582 -198
-782 -277 l-123 -48 0 -698 c0 -384 2 -698 4 -698 2 0 65 22 138 49 804 294
1933 579 2858 720 1229 189 2278 196 3505 25 996 -139 2168 -426 3043 -745 74
-27 136 -49 138 -49 2 0 4 314 4 698 l0 698 -102 38 c-485 182 -1168 392
-1733 534 -835 211 -1568 335 -2345 398 -174 15 -954 27 -1125 18z m1145 -58
c804 -69 1535 -196 2376 -411 565 -145 1229 -351 1687 -525 l57 -21 0 -655 c0
-360 -3 -654 -7 -654 -5 0 -73 23 -153 51 -840 296 -1869 552 -2785 693 -1369
210 -2510 203 -3885 -24 -811 -134 -1638 -341 -2443 -610 -180 -61 -330 -110
-332 -110 -3 0 -5 294 -5 654 l0 654 47 20 c234 100 856 310 1266 428 1055
304 2015 471 3017 528 173 9 985 -3 1160 -18z"/>
<path d="M6963 15265 c-142 -39 -231 -152 -252 -320 -36 -289 113 -475 380
-475 203 0 343 126 369 333 23 187 -40 349 -166 423 -89 52 -223 68 -331 39z
m244 -157 c59 -39 87 -102 91 -205 5 -114 -16 -185 -73 -239 -56 -54 -118 -70
-195 -50 -98 25 -151 103 -158 232 -7 136 32 228 117 274 55 30 164 24 218
-12z"/>
<path d="M6030 15238 c-74 -5 -136 -11 -138 -12 -3 -4 36 -647 44 -725 l6 -54
136 7 c327 17 389 31 449 99 95 109 53 293 -76 332 l-23 7 31 29 c100 91 72
252 -54 310 -45 21 -142 23 -375 7z m304 -140 c15 -13 29 -37 32 -54 5 -26 0
-38 -24 -65 -28 -32 -32 -33 -145 -43 -64 -5 -120 -6 -124 -2 -5 4 -10 45 -12
91 l-3 84 58 4 c165 10 192 8 218 -15z m26 -306 c23 -11 39 -29 49 -55 13 -34
12 -42 -3 -73 -22 -48 -59 -61 -197 -69 l-116 -7 -6 38 c-4 22 -7 69 -7 106
l0 67 68 4 c158 8 177 7 212 -11z"/>
<path d="M7660 15219 c-1 -13 -18 -188 -39 -389 -22 -201 -38 -366 -37 -367 7
-8 146 -14 146 -7 0 23 51 478 53 481 2 2 61 -116 132 -261 l128 -264 74 -7
c41 -4 77 -4 80 -1 6 6 87 766 82 771 -2 2 -35 5 -74 7 l-70 3 -25 -242 c-14
-133 -28 -244 -31 -247 -3 -4 -64 115 -134 264 -119 249 -131 270 -154 270
-15 0 -50 3 -78 6 -51 7 -53 6 -53 -17z"/>
<path d="M8437 15143 c-3 -5 -8 -33 -12 -64 l-7 -56 111 -18 c93 -15 111 -21
111 -36 0 -16 -83 -538 -96 -600 -5 -26 -3 -26 71 -38 42 -7 78 -11 80 -9 2 1
27 145 55 318 29 173 53 316 54 317 1 2 52 -5 114 -15 125 -21 117 -24 127 59
l7 55 -294 47 c-315 51 -315 51 -321 40z"/>
<path d="M5071 15124 c-40 -7 -74 -14 -75 -16 -2 -2 -43 -187 -93 -411 l-90
-409 30 6 c17 4 55 9 83 12 l53 7 10 48 c6 27 14 67 17 89 4 22 11 43 17 47
10 6 300 54 303 50 1 -1 22 -38 48 -83 l46 -81 81 13 c45 7 83 14 84 16 6 6
-419 721 -430 724 -6 1 -43 -4 -84 -12z m114 -325 c36 -66 65 -122 63 -124 -6
-6 -192 -34 -197 -30 -7 8 51 285 59 280 4 -3 38 -59 75 -126z"/>
<path d="M4411 15005 c-177 -36 -296 -65 -299 -72 -2 -7 2 -37 8 -68 10 -49
14 -54 33 -50 74 18 202 44 204 41 1 -1 31 -142 66 -314 35 -172 66 -314 69
-317 9 -9 148 27 148 39 0 6 -28 147 -62 314 -47 233 -59 305 -49 311 6 4 57
16 112 26 54 10 99 22 99 26 0 19 -23 115 -29 119 -3 4 -138 -21 -300 -55z"/>
<path d="M9301 14956 c-30 -44 -413 -633 -424 -653 -7 -11 21 -19 123 -38 35
-6 35 -6 85 75 28 44 55 79 60 76 6 -2 74 -16 152 -32 l142 -28 11 -66 c24
-142 11 -124 103 -142 45 -9 83 -15 84 -14 2 1 -133 775 -142 812 -4 16 -19
23 -85 35 l-81 16 -28 -41z m94 -316 c16 -104 18 -140 9 -140 -20 0 -168 32
-180 39 -7 4 16 50 64 128 42 67 78 120 81 117 3 -2 14 -67 26 -144z"/>
<path d="M9915 14857 c-10 -30 -188 -724 -189 -736 -1 -10 22 -20 69 -32 38
-10 70 -17 71 -16 0 1 27 106 59 232 32 127 61 233 65 238 4 4 44 -114 90
-263 46 -148 86 -274 89 -279 4 -5 39 -19 79 -30 57 -16 74 -17 78 -7 20 51
192 742 186 747 -4 3 -35 13 -70 22 -47 11 -64 12 -67 4 -2 -7 -29 -110 -60
-231 -31 -120 -60 -227 -63 -237 -5 -13 -35 72 -92 262 -47 154 -88 285 -91
290 -10 17 -150 49 -154 36z"/>
<path d="M3630 14840 c-191 -46 -304 -199 -286 -389 13 -147 75 -278 161 -343
73 -56 130 -71 234 -66 144 8 252 63 318 162 43 63 56 114 56 211 -2 190 -104
360 -250 415 -57 21 -166 26 -233 10z m181 -150 c78 -40 139 -169 139 -294 -1
-133 -81 -216 -210 -216 -115 0 -189 78 -226 237 -31 133 11 231 116 277 51
22 133 20 181 -4z"/>
<path d="M3051 14668 l-93 -30 -60 -126 c-33 -69 -78 -164 -100 -211 l-41 -86
-51 157 c-28 86 -54 159 -57 162 -3 3 -37 -5 -75 -18 -56 -19 -68 -27 -66 -42
10 -54 227 -724 235 -724 6 0 40 9 77 20 l68 20 -35 112 -35 112 38 78 c21 43
42 78 46 78 5 0 76 -61 157 -135 82 -74 155 -135 162 -135 8 0 54 13 103 28
l89 28 -221 183 -221 182 94 190 c52 104 92 189 88 188 -5 -1 -50 -15 -102
-31z"/>
<path d="M10803 14559 c-188 -72 -297 -338 -227 -552 52 -158 286 -272 492
-240 121 19 120 18 169 178 24 77 42 144 40 149 -4 13 -310 107 -318 98 -7 -7
-39 -101 -39 -112 0 -4 35 -17 78 -30 42 -13 80 -26 85 -30 4 -3 0 -27 -8 -52
-18 -52 -33 -58 -135 -58 -94 0 -163 39 -203 113 -54 104 -3 306 98 383 30 22
50 29 100 32 35 2 79 -1 99 -8 54 -18 103 -69 117 -123 13 -45 13 -46 63 -52
28 -3 63 -8 79 -11 25 -5 27 -3 27 28 0 97 -58 192 -147 245 -109 64 -267 82
-370 42z"/>
<path d="M6778 13553 c-60 -125 -112 -230 -114 -232 -2 -2 -116 -20 -254 -41
-137 -20 -252 -39 -255 -42 -3 -3 78 -86 180 -184 l185 -179 -40 -230 c-21
-126 -42 -243 -44 -258 -6 -28 -2 -27 177 67 100 52 205 107 232 122 l50 27
230 -121 c126 -67 230 -120 231 -119 1 1 -17 117 -42 257 l-43 255 186 180
c155 150 182 180 167 187 -11 4 -118 21 -239 38 -121 17 -229 33 -240 35 -15
3 -48 62 -129 230 -60 124 -113 228 -118 231 -5 3 -59 -97 -120 -223z"/>
<path d="M3359 12952 c-144 -94 -269 -222 -371 -377 -86 -132 -100 -185 -99
-375 0 -85 5 -182 10 -215 10 -67 -5 -204 -39 -371 -18 -86 -27 -109 -79 -188
-172 -265 -302 -559 -377 -851 -27 -106 -30 -113 -87 -175 -33 -36 -89 -105
-125 -154 -55 -73 -67 -85 -73 -69 -15 42 -31 175 -27 228 l5 56 150 152 c82
84 165 174 182 200 61 90 94 217 111 425 16 202 -11 442 -49 442 -24 0 -153
-87 -235 -158 -134 -117 -293 -324 -336 -439 -45 -120 -46 -347 -4 -623 10
-66 18 -204 21 -370 l5 -265 -46 -118 c-80 -206 -149 -480 -176 -702 -18 -150
-17 -149 -50 -84 -47 92 -71 174 -60 203 5 14 42 83 83 153 134 232 158 322
137 513 -20 193 -87 420 -161 549 l-31 53 -50 -48 c-166 -163 -338 -538 -338
-739 0 -117 52 -285 176 -566 155 -353 271 -669 335 -914 31 -119 31 -122 33
-400 2 -247 5 -291 25 -375 39 -170 40 -163 -18 -102 l-51 54 0 213 c1 296 -9
337 -134 520 -109 161 -408 437 -439 406 -5 -5 -18 -45 -29 -88 -29 -113 -36
-383 -14 -522 41 -260 115 -369 416 -611 217 -174 450 -395 591 -560 165 -194
230 -304 269 -463 30 -119 59 -202 106 -302 16 -33 30 -64 33 -69 2 -5 -24 10
-57 34 -60 41 -63 45 -101 144 -21 55 -44 119 -51 141 -20 65 -77 176 -118
230 -102 136 -425 302 -642 331 l-50 7 0 -51 c0 -114 63 -349 127 -477 40 -78
122 -193 167 -232 56 -48 216 -124 371 -176 138 -46 233 -100 605 -341 466
-302 674 -467 773 -614 32 -48 74 -106 94 -129 19 -24 29 -43 21 -43 -43 1
-102 47 -217 169 -185 197 -268 248 -461 282 -108 19 -356 16 -455 -6 -44 -9
-83 -19 -87 -21 -4 -3 4 -28 18 -57 117 -234 361 -470 544 -528 82 -26 272
-35 424 -21 l109 11 116 -35 c306 -92 617 -198 821 -281 107 -43 144 -63 180
-98 95 -91 241 -164 400 -200 82 -18 435 -33 515 -21 44 7 45 8 45 45 0 21 -3
65 -6 97 l-6 60 -167 0 c-186 0 -287 15 -425 65 -165 59 -315 170 -365 267
-18 35 -21 59 -21 158 0 131 -22 303 -50 381 -65 186 -346 427 -597 514 -63
21 -62 23 -70 -116 -10 -181 32 -424 98 -558 39 -81 94 -145 189 -220 76 -61
69 -66 -25 -19 -235 117 -471 380 -613 682 l-44 95 43 170 c54 215 64 363 31
491 -29 117 -75 229 -135 329 -53 89 -178 235 -202 235 -18 0 -99 -169 -129
-270 -63 -216 -74 -393 -30 -532 35 -113 84 -216 139 -294 25 -36 42 -64 38
-62 -12 5 -313 203 -358 235 -97 70 -232 297 -299 503 -55 170 -96 409 -96
555 l1 60 80 95 c98 117 201 268 228 336 38 99 54 201 54 359 1 84 -5 177 -12
210 -19 91 -63 215 -77 215 -22 0 -128 -87 -205 -167 -137 -144 -238 -308
-266 -435 -25 -113 -23 -338 5 -455 23 -96 28 -147 14 -141 -14 5 -175 188
-201 226 -38 57 -117 250 -147 358 -40 148 -54 255 -54 411 0 214 30 383 99
558 l32 81 109 82 c136 103 256 220 305 296 114 179 182 488 156 709 -12 104
-18 127 -33 127 -5 0 -43 -15 -83 -34 -169 -78 -382 -254 -475 -392 -85 -128
-140 -341 -140 -545 0 -105 -16 -209 -31 -209 -25 0 -23 186 7 468 73 710 308
1266 649 1541 112 90 159 111 274 122 223 21 371 52 469 100 144 70 320 233
428 395 62 94 121 221 107 235 -5 5 -44 14 -88 20 -163 23 -434 -9 -593 -71
-132 -51 -305 -205 -410 -365 -28 -44 -52 -75 -52 -68 0 33 80 236 144 368
123 250 261 440 471 651 128 128 273 249 414 343 134 90 125 87 326 94 100 4
221 14 270 22 202 35 451 202 605 407 56 74 126 195 118 204 -2 2 -31 10 -63
19 -219 57 -562 37 -717 -41 -130 -65 -288 -203 -392 -342 -36 -47 -90 -94
-219 -191 -208 -155 -357 -283 -496 -425 -57 -58 -106 -105 -108 -102 -2 2 2
16 9 32 27 63 92 144 194 239 59 55 124 125 145 157 69 108 104 302 96 537 -5
157 -21 251 -42 251 -7 0 -46 -22 -86 -48z"/>
<path d="M9785 12981 c-45 -11 -69 -26 -103 -65 -35 -40 -57 -106 -48 -142 6
-23 4 -24 -46 -24 -77 0 -122 -16 -157 -55 -56 -64 -70 -183 -32 -270 17 -38
19 -51 9 -54 -7 -2 -30 -21 -50 -41 -35 -35 -38 -42 -38 -96 1 -104 49 -176
131 -193 24 -5 74 -21 110 -34 81 -31 194 -48 275 -40 55 5 62 4 66 -15 5 -17
-1 -22 -37 -32 -53 -15 -107 -58 -129 -104 -37 -79 -6 -220 62 -276 20 -17 62
-38 92 -46 30 -9 89 -33 130 -54 94 -48 205 -86 297 -101 l71 -12 -29 -45
c-38 -60 -49 -102 -49 -188 0 -117 38 -192 124 -246 28 -17 88 -67 133 -110
86 -81 201 -162 285 -201 35 -16 46 -26 42 -37 -51 -115 -59 -233 -20 -315 13
-28 44 -69 69 -91 26 -23 66 -70 89 -105 53 -80 180 -213 252 -265 30 -21 55
-41 56 -44 0 -3 -13 -11 -28 -18 -38 -16 -88 -66 -118 -117 -83 -142 -85 -301
-4 -420 14 -22 41 -85 59 -140 35 -104 91 -225 147 -313 39 -60 41 -69 16 -76
-37 -12 -114 -102 -150 -176 -34 -68 -37 -81 -37 -160 1 -69 6 -96 27 -145 14
-33 32 -103 40 -155 l15 -95 -44 -48 c-81 -88 -120 -218 -95 -323 5 -22 7
-108 4 -192 -5 -148 -5 -151 -25 -141 -11 6 -49 11 -85 11 -78 -1 -159 -37
-239 -107 -78 -69 -105 -131 -114 -269 -4 -61 -11 -127 -17 -146 -6 -19 -13
-47 -16 -63 l-6 -27 -41 21 c-54 27 -130 34 -202 19 -79 -16 -188 -73 -231
-120 -19 -21 -48 -46 -64 -54 -86 -45 -198 -237 -269 -463 l-38 -121 -46 -6
c-62 -8 -161 -59 -198 -102 -55 -63 -101 -181 -101 -261 0 -28 -5 -35 -34 -47
-79 -33 -198 -182 -288 -359 -55 -109 -113 -291 -134 -416 -20 -126 -15 -311
12 -415 l17 -70 -63 -58 c-77 -71 -265 -167 -390 -199 -157 -40 -416 -27 -630
32 -114 32 -352 121 -355 133 -1 6 -8 44 -14 84 -21 136 -92 242 -198 295 -65
33 -311 112 -398 127 -38 7 -86 23 -105 36 -85 56 -297 73 -422 34 -231 -71
-234 -247 -6 -321 56 -18 96 -23 176 -24 79 0 94 -2 65 -8 -21 -5 -87 -7 -148
-4 -144 6 -230 36 -292 101 -32 33 -43 53 -43 76 0 38 23 84 52 104 29 21 14
20 -92 -3 -242 -54 -435 -162 -489 -274 -45 -93 -18 -193 72 -272 326 -285
1233 -309 1642 -43 28 18 27 17 -4 -11 -79 -70 -267 -146 -446 -180 -455 -88
-965 -16 -1233 176 l-23 16 6 -64 c19 -186 38 -234 131 -318 66 -61 201 -129
324 -164 167 -48 270 -61 495 -61 226 0 326 12 485 58 46 13 87 23 90 21 4 -2
25 -48 49 -102 84 -195 173 -292 274 -301 103 -8 162 52 162 168 0 92 -34 156
-146 275 -49 52 -89 97 -89 99 0 3 14 20 31 38 17 18 42 56 55 84 l24 52 136
-44 c229 -74 413 -104 634 -104 225 1 240 4 590 148 80 33 175 67 213 76 l67
17 95 -30 c135 -44 248 -61 399 -61 234 0 431 42 615 132 118 56 213 139 225
195 7 29 11 31 64 38 126 15 204 45 300 117 65 48 135 141 157 208 16 47 21
52 96 92 161 86 334 237 398 350 21 35 40 55 68 68 62 28 159 105 204 162 23
29 58 86 77 127 33 68 36 83 40 185 l5 110 102 98 c95 91 178 196 220 278 10
19 41 61 70 92 60 65 104 138 131 218 21 63 24 217 6 262 -10 25 -8 32 28 73
95 109 173 239 213 351 14 39 44 99 66 134 71 109 85 158 86 295 0 111 -2 124
-28 180 -16 33 -39 72 -53 86 l-24 25 29 65 c39 87 66 178 81 274 7 44 26 121
43 170 36 109 42 235 14 326 -33 110 -121 206 -210 230 -23 6 -47 13 -54 15
-7 2 2 34 27 92 71 165 112 356 110 517 -1 49 3 114 9 144 15 74 14 196 -3
257 -32 119 -120 227 -213 258 -85 29 -192 18 -255 -26 -16 -11 -28 -18 -28
-15 0 2 11 37 25 77 62 183 77 431 34 585 -12 44 -25 116 -30 160 -9 95 -18
128 -55 196 -46 83 -136 148 -229 163 -49 8 -137 -8 -185 -33 l-36 -19 0 142
c0 193 -34 361 -93 462 -11 17 -25 58 -31 91 -36 173 -154 295 -302 310 -147
15 -296 -93 -314 -229 -11 -82 -28 -51 -35 63 -13 203 -68 347 -186 484 -19
22 -52 67 -72 100 -61 99 -145 144 -266 144 -149 1 -266 -97 -269 -226 -1 -43
-4 -52 -16 -47 -8 3 -27 8 -42 11 -25 5 -28 10 -28 43 0 107 -78 297 -157 379
-23 24 -54 61 -69 83 -47 67 -138 106 -209 89z m115 -56 c14 -7 33 -22 43 -33
17 -19 17 -19 -20 -25 -76 -13 -143 -95 -143 -176 l0 -41 -66 0 c-85 0 -127
-20 -160 -76 -36 -61 -42 -138 -16 -197 l20 -46 -44 -21 c-76 -37 -121 -113
-107 -184 6 -28 5 -30 -10 -17 -9 7 -24 37 -33 66 -23 73 -7 120 54 153 23 13
42 29 42 36 0 7 -12 41 -26 77 -29 70 -29 124 0 192 28 68 137 97 236 62 23
-8 44 -15 47 -15 2 0 -8 20 -22 43 -29 51 -31 85 -9 133 38 80 133 110 214 69z
m777 -330 c47 -20 96 -57 121 -92 l20 -28 -52 0 c-145 0 -247 -84 -270 -221
l-7 -42 -46 14 c-64 19 -186 18 -229 -2 -74 -35 -134 -128 -142 -218 -3 -45 5
-83 32 -147 6 -13 -4 -18 -52 -28 -79 -15 -160 -65 -189 -116 -24 -43 -30
-104 -12 -137 16 -30 2 -34 -27 -7 -82 75 -86 230 -8 283 10 7 43 21 72 31 29
9 56 23 58 30 3 7 -6 46 -21 87 -34 93 -30 152 17 240 38 72 83 103 163 113
63 8 161 -9 231 -40 l54 -24 -25 47 c-14 26 -25 62 -25 80 0 68 57 140 140
176 46 20 151 20 197 1z m820 -560 c71 -21 145 -90 183 -170 39 -81 38 -90 -2
-68 -23 12 -56 17 -108 17 -127 0 -203 -52 -263 -184 -17 -36 -32 -67 -33 -69
-2 -2 -17 7 -35 20 -95 67 -224 88 -306 48 -51 -25 -112 -91 -144 -157 -18
-37 -23 -64 -24 -132 0 -47 4 -96 8 -110 l8 -25 -88 -1 c-108 0 -177 -27 -228
-87 -40 -47 -59 -118 -45 -168 14 -49 12 -54 -11 -33 -78 69 -84 276 -11 357
29 33 89 57 140 57 78 0 84 10 71 110 -12 96 -6 155 22 220 24 55 91 144 125
166 36 24 102 34 159 23 59 -11 170 -61 205 -93 14 -12 33 -28 44 -36 18 -14
18 -13 11 20 -30 131 34 249 157 291 65 23 100 23 165 4z m671 -969 c88 -45
150 -133 170 -246 9 -48 8 -50 -8 -35 -31 28 -118 55 -175 55 -97 0 -172 -45
-233 -138 -20 -32 -37 -59 -39 -61 -1 -2 -25 17 -53 41 -72 63 -133 91 -207
96 -76 5 -134 -21 -198 -89 -71 -75 -89 -120 -90 -217 l0 -83 -35 8 c-19 4
-78 8 -132 8 -91 0 -99 -2 -140 -30 -63 -45 -89 -96 -86 -168 l3 -58 -22 26
c-86 99 -26 336 94 376 19 6 66 9 106 7 l72 -3 8 90 c11 125 29 181 82 247 98
122 188 147 313 88 76 -36 130 -78 177 -138 l35 -45 0 59 c0 60 25 130 58 167
22 25 88 59 132 68 53 11 114 2 168 -25z m-132 -1056 c28 -16 75 -55 103 -87
50 -55 121 -179 121 -210 0 -8 5 -11 10 -8 6 3 10 16 10 29 0 84 86 200 166
224 51 15 117 15 168 1 52 -14 139 -98 170 -164 31 -65 48 -168 40 -239 l-7
-56 -38 44 c-56 64 -126 96 -209 96 -85 0 -149 -31 -221 -107 -29 -31 -55 -51
-57 -45 -9 28 -83 132 -118 166 -84 83 -185 99 -291 46 -112 -56 -195 -173
-209 -295 -6 -53 -16 -67 -29 -45 -4 6 -34 25 -68 42 -108 54 -227 50 -299
-10 -39 -33 -78 -115 -79 -167 l-1 -40 -13 30 c-37 82 -23 187 39 299 66 121
153 154 270 102 61 -27 86 -24 86 13 1 27 58 180 84 226 30 51 99 113 170 155
70 41 132 41 202 0z m165 -1169 c25 -15 60 -46 78 -67 44 -54 98 -166 117
-247 l17 -67 23 56 c34 84 83 134 153 159 56 19 84 19 150 -1 72 -21 140 -85
177 -167 25 -54 29 -74 29 -157 0 -52 -6 -117 -14 -143 l-14 -48 -28 49 c-53
94 -139 146 -239 146 -74 0 -129 -21 -201 -77 l-47 -35 -22 61 c-39 109 -102
193 -173 229 -90 46 -246 7 -338 -85 -41 -41 -99 -145 -99 -178 0 -32 -14 -28
-62 17 -104 97 -237 124 -329 65 -54 -34 -85 -80 -95 -141 -9 -57 -22 -29 -23
51 -1 69 19 128 67 199 54 78 119 120 187 120 45 0 62 -6 113 -40 33 -22 64
-40 69 -40 5 0 31 43 57 95 74 145 129 200 255 251 78 33 136 31 192 -5z m-18
-834 c43 -19 104 -88 132 -152 30 -67 55 -187 56 -267 0 -53 2 -60 12 -43 7
11 35 43 62 71 75 78 157 94 252 50 176 -83 230 -304 126 -524 l-26 -56 -17
50 c-22 68 -53 116 -105 162 -88 77 -190 82 -346 18 -14 -6 -18 2 -23 41 -33
245 -118 346 -290 345 -125 -1 -227 -57 -292 -163 l-37 -59 -46 67 c-30 44
-66 82 -104 108 -55 38 -63 40 -131 40 -94 0 -146 -31 -182 -108 l-24 -52 0
46 c0 75 27 135 92 204 127 137 242 143 343 20 42 -52 64 -56 87 -17 34 55
155 172 202 193 86 38 202 49 259 26z m-346 -880 c46 -24 99 -89 121 -150 32
-84 46 -212 33 -296 -16 -100 -16 -100 37 -49 26 26 64 54 84 63 48 19 138 19
185 0 147 -62 227 -251 178 -421 -20 -71 -68 -164 -100 -194 l-22 -21 -7 48
c-13 104 -91 219 -172 258 -66 31 -184 36 -270 10 -21 -6 -21 -3 -26 112 -8
181 -51 268 -155 319 -145 71 -342 25 -439 -103 l-32 -42 -36 74 c-44 88 -111
166 -169 194 -90 44 -209 17 -264 -58 -42 -56 -44 -58 -37 -21 28 147 180 283
318 283 81 0 142 -43 191 -136 10 -20 26 -39 33 -42 8 -3 35 14 62 38 71 64
153 118 212 139 65 23 226 20 275 -5z m-1262 -568 c62 -17 127 -89 154 -171
12 -36 28 -71 35 -77 20 -17 150 57 205 115 l44 47 66 -5 c130 -10 316 -101
363 -178 78 -128 76 -346 -7 -542 -5 -13 8 -9 50 16 166 101 336 42 425 -146
72 -153 33 -339 -101 -483 -52 -55 -142 -125 -162 -125 -4 0 -7 22 -7 49 0 73
-17 149 -49 216 -60 126 -167 194 -322 203 -74 4 -89 7 -84 20 12 33 35 188
35 242 0 182 -60 284 -209 358 -70 34 -81 37 -165 37 -81 0 -98 -3 -156 -31
-36 -18 -81 -45 -100 -62 l-35 -30 -22 92 c-46 186 -130 301 -244 333 -67 19
-66 26 8 70 94 55 197 74 278 52z m-588 -772 c59 -31 94 -88 113 -183 17 -88
20 -91 72 -71 118 45 222 62 295 47 80 -17 198 -77 238 -122 88 -97 84 -303
-9 -490 -19 -38 -32 -68 -30 -68 3 0 20 6 38 14 61 25 112 29 173 11 77 -22
160 -104 193 -191 33 -88 26 -207 -18 -297 -67 -135 -221 -244 -379 -268 -40
-6 -76 -8 -81 -5 -5 3 -12 30 -15 61 -7 69 -43 150 -88 194 -42 42 -135 87
-199 96 l-49 7 20 44 c36 86 51 165 47 251 -6 106 -36 160 -126 220 -76 51
-125 66 -213 66 -53 0 -80 -6 -132 -30 l-64 -31 -6 77 c-12 176 -101 301 -226
318 l-39 5 5 42 c14 111 73 224 142 269 93 62 253 78 338 34z"/>
<path d="M6635 12273 c-178 -16 -372 -71 -490 -138 -160 -91 -233 -162 -364
-354 -129 -188 -208 -246 -406 -296 -123 -32 -187 -69 -270 -157 -89 -94 -136
-193 -184 -390 -22 -90 -49 -175 -64 -200 -14 -24 -69 -90 -122 -148 -220
-237 -265 -343 -265 -620 0 -118 16 -261 42 -377 l11 -53 484 0 c315 0 483 -3
483 -10 0 -7 -167 -10 -480 -10 l-480 0 0 -45 0 -45 490 0 c385 0 490 -3 490
-12 1 -35 257 -1728 262 -1734 18 -18 1124 -504 1146 -504 20 0 1092 487 1109
504 2 1 59 380 128 842 68 461 127 854 130 872 l6 32 489 0 490 0 0 45 0 45
-479 0 c-309 0 -482 4 -486 10 -4 7 158 10 478 10 l484 0 11 53 c40 179 54
428 32 566 -23 139 -90 252 -253 429 -58 62 -116 134 -130 160 -14 26 -37 101
-52 167 -52 226 -104 334 -212 437 -79 75 -131 103 -248 133 -199 51 -278 108
-406 297 -209 308 -444 446 -831 488 -90 9 -450 11 -543 3z m870 -518 c248
-114 451 -209 452 -209 0 -1 65 -429 143 -953 l141 -951 -141 -949 c-77 -521
-144 -951 -148 -954 -7 -7 -965 -453 -1012 -471 -22 -9 -96 21 -555 226 -291
131 -534 241 -539 246 -10 10 -285 1844 -286 1900 0 56 278 1904 287 1908 4 1
247 110 538 241 l530 237 70 -31 c39 -17 273 -125 520 -240z"/>
<path d="M6401 11652 c-266 -125 -488 -234 -492 -242 -4 -8 -64 -411 -133
-895 l-124 -880 126 -885 127 -885 33 -16 c17 -9 37 -21 44 -26 17 -13 922
-433 934 -433 13 0 887 422 901 435 6 7 25 17 41 24 17 7 32 22 35 34 3 12 61
412 128 889 l124 868 -124 872 c-68 480 -128 882 -131 893 -9 25 -926 469
-974 472 -22 1 -171 -64 -515 -225z m965 -68 c247 -119 450 -217 451 -218 1
-1 57 -389 125 -864 l123 -862 -122 -857 c-108 -752 -131 -892 -146 -872 -2 2
-90 569 -196 1259 -106 690 -196 1267 -198 1283 l-5 27 -232 0 -231 1 27 20
c15 11 37 35 48 54 21 34 24 35 83 35 90 0 143 41 171 133 3 9 15 17 28 17 37
0 109 41 129 74 38 63 22 160 -35 207 -18 15 -18 17 0 70 40 120 17 209 -65
245 l-39 17 -5 70 c-4 61 -8 74 -31 94 -14 12 -42 25 -61 29 -23 4 -35 12 -35
23 -1 51 -64 101 -126 101 -37 0 -43 4 -54 30 -14 33 -41 53 -85 64 l-30 8 25
13 c14 8 28 14 31 15 3 0 208 -97 455 -216z m-599 113 c-11 -33 -16 -37 -45
-37 -59 0 -132 -56 -132 -100 0 -12 -13 -21 -43 -28 -63 -16 -81 -41 -85 -120
l-4 -67 -47 -27 c-81 -45 -99 -115 -61 -229 l21 -61 -34 -37 c-62 -69 -58
-164 10 -220 20 -17 50 -33 67 -36 59 -12 66 -16 66 -40 0 -31 43 -81 92 -106
30 -15 50 -18 82 -14 41 7 45 5 96 -44 l53 -51 -201 0 c-201 0 -202 0 -207
-22 -3 -13 -92 -589 -199 -1281 -106 -692 -196 -1261 -200 -1264 -3 -4 -9 -4
-12 0 -3 3 -61 394 -129 869 l-124 863 123 857 c67 472 125 860 127 863 6 5
793 372 796 371 1 -1 -4 -18 -10 -39z m133 18 c17 -9 34 -29 41 -50 12 -33 15
-35 61 -35 49 0 92 -19 102 -45 3 -8 -6 -28 -20 -45 l-26 -30 67 0 c57 0 69
-3 90 -25 22 -21 25 -33 25 -94 l0 -69 34 -12 c90 -29 110 -79 77 -189 -27
-90 -27 -97 9 -130 40 -36 53 -81 37 -128 -17 -50 -55 -75 -122 -81 l-55 -4 0
-37 c0 -20 -7 -47 -16 -59 -19 -28 -65 -52 -98 -52 -24 0 -24 0 15 59 59 88
92 183 93 266 1 61 -3 78 -32 131 -18 33 -87 123 -153 200 -131 152 -167 205
-184 271 l-11 44 -48 -99 c-76 -160 -76 -236 3 -344 27 -37 52 -79 55 -93 7
-26 -25 -115 -41 -115 -4 0 -21 22 -36 50 -37 67 -116 151 -181 194 -67 44
-75 45 -42 5 34 -40 34 -96 0 -230 -40 -155 -28 -222 58 -315 41 -45 38 -55
-10 -30 -45 24 -70 58 -74 101 -3 39 -4 40 -44 42 -82 3 -139 51 -139 118 0
35 7 49 38 84 20 22 37 47 37 54 0 8 -9 40 -20 72 -38 112 -19 171 65 199 l40
14 5 76 c6 98 17 109 111 114 l70 4 -28 30 -28 29 33 30 c26 24 41 29 81 29
48 0 49 1 55 36 8 38 37 74 61 74 9 0 29 -7 45 -15z m-313 -1362 c-70 -25
-129 -44 -131 -42 -1 2 -1 23 2 47 l4 42 127 -1 126 0 -128 -46z m747 25 c7
-27 8 -68 2 -68 -7 0 -241 82 -245 86 -2 2 50 4 116 4 117 0 121 -1 127 -22z
m-464 -148 c0 -71 -2 -130 -4 -130 -4 0 -334 114 -366 126 -13 5 327 132 358
133 9 1 12 -31 12 -129z m250 69 c96 -33 176 -62 179 -64 5 -5 -16 -13 -206
-80 l-153 -54 0 130 c0 71 1 129 3 129 1 0 81 -27 177 -61z m-512 -195 c89
-31 161 -58 159 -60 -5 -6 -371 -133 -374 -130 -3 2 24 183 33 224 2 12 8 22
12 22 4 0 80 -25 170 -56z m762 49 c0 -5 7 -48 15 -98 8 -49 15 -102 15 -117
l0 -27 -142 50 c-194 68 -229 81 -224 86 6 7 309 112 324 112 6 1 12 -2 12 -6z
m-500 -313 c0 -82 -3 -150 -6 -150 -17 0 -422 145 -418 150 6 5 404 148 417
149 4 1 7 -66 7 -149z m284 74 c105 -37 194 -70 198 -73 4 -3 -87 -38 -203
-78 l-209 -72 0 145 c0 104 3 144 12 144 6 0 98 -30 202 -66z m-577 -211 c126
-44 188 -70 179 -75 -25 -14 -419 -149 -426 -146 -4 2 27 233 39 286 2 6 29
-2 208 -65z m853 62 c0 -3 9 -67 21 -141 11 -75 18 -138 16 -141 -6 -5 -416
135 -430 147 -4 4 77 37 180 73 183 64 213 73 213 62z m-560 -361 c0 -90 -2
-164 -5 -164 -3 0 -112 37 -242 82 -166 58 -231 85 -221 92 24 15 453 163 461
159 4 -2 7 -78 7 -169z m287 96 c110 -38 213 -74 229 -81 l29 -11 -50 -18
c-27 -10 -134 -47 -237 -84 l-188 -65 0 164 c0 93 4 165 9 165 5 0 99 -31 208
-70z m-613 -234 c124 -43 225 -81 222 -83 -6 -6 -510 -182 -514 -179 -1 2 9
74 23 162 14 87 25 165 25 172 0 8 4 12 8 10 5 -1 111 -38 236 -82z m975 -82
c13 -84 21 -158 19 -166 -2 -12 -58 5 -251 72 -136 48 -250 90 -253 92 -2 3
98 41 223 85 126 45 231 78 234 74 3 -3 16 -74 28 -157z m-649 -237 c0 -101
-2 -186 -5 -189 -6 -6 -525 175 -525 183 0 5 502 186 523 188 4 1 7 -81 7
-182z m338 86 c138 -48 252 -89 252 -92 0 -6 -498 -181 -512 -181 -5 0 -8 81
-8 180 0 99 3 180 8 180 4 0 121 -39 260 -87z m-578 -283 c69 -24 128 -46 132
-49 4 -4 -126 -53 -288 -110 -163 -56 -297 -101 -299 -99 -2 2 9 87 25 188 16
102 30 190 30 197 0 8 51 -6 138 -36 75 -27 193 -68 262 -91z m966 -65 c17
-107 28 -195 25 -195 -17 -1 -590 205 -585 209 9 9 497 180 515 180 12 1 21
-36 45 -194z m-726 -264 c0 -121 -3 -222 -7 -224 -8 -4 -644 215 -639 221 6 5
621 220 634 221 9 1 12 -49 12 -218z m395 107 c160 -56 294 -104 298 -108 7
-6 -590 -220 -614 -220 -5 0 -9 93 -9 221 0 207 1 221 18 214 9 -4 148 -52
307 -107z m-801 -283 c164 -57 300 -106 302 -108 5 -4 -679 -245 -684 -241 -3
2 53 384 63 432 3 12 9 22 13 22 4 0 142 -47 306 -105z m1186 96 c0 -10 55
-372 64 -423 l5 -27 -137 48 c-75 27 -230 81 -345 121 -114 40 -205 75 -202
78 7 7 587 211 603 211 6 1 12 -3 12 -8z m-780 -546 c0 -157 -3 -285 -7 -285
-16 0 -705 324 -697 327 125 46 683 241 692 242 9 1 12 -62 12 -284z m607 97
c89 -31 159 -60 155 -63 -9 -8 -679 -329 -686 -329 -3 0 -6 130 -6 290 l0 289
188 -65 c103 -36 260 -91 349 -122z"/>
<path d="M3770 10189 c0 -72 24 -160 72 -259 33 -70 55 -100 125 -167 46 -46
89 -83 95 -83 10 0 138 87 138 95 0 2 -14 41 -30 86 -54 146 -166 271 -314
348 -80 43 -86 41 -86 -20z"/>
<path d="M9963 10211 c-170 -94 -264 -201 -327 -375 l-23 -65 66 -45 c36 -25
71 -46 76 -46 18 0 96 82 116 123 11 21 29 73 40 114 10 42 21 79 24 81 14 14
3 -114 -15 -169 -10 -35 -18 -64 -17 -66 4 -3 64 69 95 113 37 53 55 157 53
302 -1 74 -9 77 -88 33z"/>
<path d="M4133 9704 c-91 -64 -109 -84 -77 -84 22 0 194 121 194 137 0 24 -24
13 -117 -53z"/>
<path d="M9565 9761 c-6 -10 17 -29 119 -100 59 -41 91 -52 84 -28 -5 12 -176
137 -189 137 -4 0 -10 -4 -14 -9z"/>
<path d="M4163 9664 c-91 -64 -109 -84 -77 -84 22 0 194 121 194 137 0 24 -24
13 -117 -53z"/>
<path d="M9540 9717 c0 -17 187 -153 197 -144 13 14 -10 37 -86 91 -95 67
-111 74 -111 53z"/>
<path d="M4193 9624 c-51 -36 -93 -72 -93 -80 0 -8 4 -14 8 -14 16 0 197 131
197 142 0 25 -24 14 -112 -48z"/>
<path d="M9510 9677 c0 -20 186 -151 200 -142 16 10 -2 28 -92 90 -92 66 -108
73 -108 52z"/>
<path d="M4230 9587 c-88 -59 -110 -80 -96 -94 7 -7 206 126 206 138 0 23 -26
12 -110 -44z"/>
<path d="M9480 9637 c0 -9 37 -42 83 -75 105 -74 105 -74 117 -67 16 10 -2 28
-92 90 -92 66 -108 73 -108 52z"/>
<path d="M4247 9544 c-94 -64 -114 -84 -81 -84 23 0 194 120 194 136 0 8 -4
14 -8 14 -4 0 -52 -30 -105 -66z"/>
<path d="M9450 9602 c0 -13 27 -36 115 -97 72 -50 95 -58 95 -35 0 11 -183
140 -199 140 -6 0 -11 -4 -11 -8z"/>
<path d="M4284 9509 c-110 -76 -111 -76 -98 -89 13 -13 197 109 202 134 5 26
-10 19 -104 -45z"/>
<path d="M9426 9561 c-7 -11 14 -30 110 -96 84 -59 94 -63 94 -40 0 12 -177
145 -193 145 -3 0 -8 -4 -11 -9z"/>
<path d="M4314 9469 c-110 -76 -111 -76 -97 -90 8 -8 38 8 107 56 53 37 96 70
96 75 0 24 -25 14 -106 -41z"/>
<path d="M9396 9521 c-7 -11 14 -30 110 -96 84 -59 94 -63 94 -40 0 12 -177
145 -193 145 -3 0 -8 -4 -11 -9z"/>
<path d="M9372 9473 c3 -17 171 -143 189 -143 5 0 9 7 9 15 0 12 -177 145
-195 145 -3 0 -5 -8 -3 -17z"/>
<path d="M4330 9419 c-77 -54 -109 -89 -81 -89 16 0 201 130 201 141 0 22 -41
4 -120 -52z"/>
<path d="M4375 9394 c-99 -69 -112 -81 -100 -93 7 -7 39 10 89 44 95 65 117
85 110 96 -8 14 -15 11 -99 -47z"/>
<path d="M9346 9443 c-3 -3 -6 -10 -6 -14 0 -10 185 -139 199 -139 31 0 2 32
-76 86 -109 75 -109 75 -117 67z"/>
<path d="M4388 9351 c-53 -36 -97 -69 -98 -72 0 -4 336 -485 746 -1070 l745
-1064 -694 -5 -694 -5 140 -366 140 -367 46 -6 c74 -10 143 -49 232 -131 102
-94 130 -107 231 -107 100 0 135 13 211 74 111 90 194 118 344 118 157 0 248
-30 349 -116 70 -60 111 -75 208 -76 104 -1 131 11 234 105 45 42 108 88 140
104 56 27 61 28 227 28 166 0 171 -1 227 -28 32 -16 95 -62 140 -104 103 -94
130 -106 234 -105 97 1 138 16 208 76 101 86 192 116 349 116 150 0 233 -28
344 -118 76 -61 114 -75 212 -75 100 1 131 15 230 107 87 82 157 122 232 132
l46 6 140 367 140 366 -678 3 c-374 1 -679 5 -679 10 1 4 335 484 745 1066
l743 1060 -100 70 c-101 69 -101 69 -118 48 -9 -11 -369 -523 -800 -1136
l-782 -1116 -822 2 -821 3 -792 1129 c-435 621 -795 1132 -800 1136 -4 5 -52
-22 -105 -59z"/>
<path d="M4590 6333 c0 -30 1 -30 65 -36 91 -9 146 -36 230 -116 40 -37 98
-81 131 -97 55 -27 67 -29 174 -29 136 0 167 11 275 99 89 72 146 90 280 90
131 0 183 -18 277 -95 96 -79 171 -103 296 -97 115 5 174 33 276 127 112 105
141 116 301 116 160 0 189 -11 301 -116 102 -94 161 -122 276 -127 125 -6 200
18 296 97 94 77 146 95 277 95 134 0 191 -18 280 -90 108 -88 139 -99 275 -99
107 0 119 2 174 29 33 16 91 60 131 97 84 80 139 107 230 116 64 6 65 6 65 36
l0 30 -75 -6 c-102 -7 -167 -39 -258 -125 -41 -39 -94 -80 -118 -92 -54 -28
-153 -37 -232 -20 -55 11 -77 24 -193 112 -61 46 -127 68 -230 75 -154 11
-261 -22 -373 -116 -77 -63 -115 -76 -231 -76 -117 0 -142 11 -251 111 -44 40
-105 85 -137 101 -55 27 -63 28 -207 28 -144 0 -152 -1 -207 -28 -32 -15 -97
-64 -145 -108 -105 -96 -153 -115 -273 -106 -94 6 -136 23 -213 88 -34 29 -81
60 -105 70 -102 44 -281 49 -389 12 -28 -10 -73 -34 -99 -53 -121 -90 -137
-99 -191 -110 -79 -17 -178 -8 -232 20 -24 12 -77 53 -118 92 -91 86 -156 118
-258 125 l-75 6 0 -30z"/>
<path d="M4565 5853 c-17 -3 -20 -10 -17 -49 5 -54 13 -59 110 -68 89 -8 120
-20 212 -85 99 -69 164 -92 280 -98 118 -6 221 14 294 57 137 81 149 85 296
85 147 0 159 -4 296 -85 88 -52 248 -74 374 -50 70 13 146 49 212 99 79 59
119 73 233 78 162 8 217 -8 348 -101 73 -53 148 -77 257 -83 118 -6 221 14
294 57 137 81 149 85 296 85 147 0 159 -4 296 -85 73 -43 176 -63 294 -57 116
6 181 29 280 98 92 65 123 77 212 85 97 9 105 14 110 69 l3 45 -44 6 c-63 10
-195 -12 -260 -41 -30 -14 -78 -43 -106 -64 -78 -59 -112 -73 -194 -78 -100
-7 -171 9 -245 56 -102 63 -205 91 -344 91 -142 0 -258 -31 -354 -94 -66 -44
-140 -60 -239 -53 -85 5 -104 14 -219 92 -114 77 -162 90 -345 90 -183 -1
-233 -14 -345 -90 -115 -78 -134 -87 -219 -92 -99 -7 -173 9 -239 53 -96 63
-212 94 -354 94 -139 0 -242 -28 -343 -91 -69 -43 -124 -58 -211 -59 -83 0
-150 22 -214 71 -121 92 -283 137 -405 112z"/>
<path d="M2291 4107 c-9 -11 77 -115 402 -492 226 -262 414 -481 415 -486 2
-5 -14 -9 -35 -9 -21 0 -225 -11 -453 -25 -228 -14 -424 -25 -435 -25 -31 -1
58 -77 200 -172 231 -153 622 -333 1000 -458 95 -31 208 -77 255 -102 615
-334 1575 -544 2735 -599 280 -13 1080 -7 1310 11 785 58 1340 156 1858 326
252 83 533 204 666 288 20 13 101 44 181 71 376 124 786 311 1015 463 142 95
231 171 200 172 -11 0 -207 11 -435 25 -228 14 -432 25 -453 25 -21 0 -37 4
-35 9 2 5 189 224 416 487 342 396 410 480 399 491 -11 11 -45 1 -202 -57
-546 -204 -1121 -382 -1680 -520 -328 -81 -429 -100 -538 -100 l-80 0 6 -109
6 -110 -51 -10 c-263 -57 -753 -136 -1048 -170 -600 -70 -1153 -78 -1705 -25
-358 33 -420 44 -342 57 87 14 182 124 237 274 l29 82 -52 17 c-87 28 -169 64
-231 102 l-60 36 -48 -55 c-106 -118 -139 -248 -89 -352 25 -51 69 -91 114
-102 64 -16 11 -13 -144 10 -226 33 -377 58 -625 106 l-212 41 6 104 5 104
-80 0 c-110 0 -211 19 -538 100 -565 140 -1160 324 -1680 520 -103 38 -189 70
-190 70 -2 0 -8 -6 -14 -13z m222 -106 c480 -179 1040 -353 1556 -485 139 -36
255 -66 257 -68 4 -5 -106 0 -379 18 -226 15 -246 18 -372 55 -73 21 -136 39
-139 39 -3 0 -6 -245 -6 -545 0 -331 -4 -545 -9 -545 -14 0 -239 81 -360 129
-151 61 -330 144 -445 208 -106 58 -346 213 -346 223 0 3 205 17 456 32 251
15 458 29 461 31 4 5 -107 135 -665 780 -84 97 -150 177 -147 177 4 0 66 -22
138 -49z m8755 -128 c-558 -645 -669 -775 -665 -780 3 -2 210 -16 461 -31 251
-15 456 -29 456 -32 0 -10 -240 -165 -346 -223 -115 -64 -294 -147 -445 -208
-98 -39 -345 -129 -355 -129 -2 0 -4 245 -4 545 0 300 -3 545 -7 545 -4 0 -66
-18 -137 -39 -126 -38 -140 -40 -381 -55 -309 -19 -385 -23 -381 -18 2 1 118
32 257 68 522 133 1181 340 1574 493 55 21 106 39 113 40 7 0 -56 -79 -140
-176z m-7592 -421 c676 -190 1379 -339 2009 -426 952 -132 1692 -125 2660 25
625 96 1359 266 1968 455 16 5 17 -24 17 -506 l0 -510 -87 -57 c-296 -193
-802 -376 -1348 -487 -609 -123 -1202 -176 -1984 -176 -520 0 -818 16 -1266
65 -876 98 -1666 327 -2107 611 l-68 44 0 511 c0 421 2 510 13 506 8 -3 94
-28 193 -55z m6213 -27 c-13 -12 -828 -210 -835 -202 -1 1 -5 32 -9 68 -6 60
-5 68 11 72 76 22 231 38 484 47 162 7 297 14 299 16 6 6 55 5 50 -1z m-5404
-25 c143 -5 262 -10 264 -10 4 0 -7 -152 -12 -156 -7 -8 -766 171 -777 183 -3
3 56 3 130 -1 74 -4 252 -11 395 -16z"/>
<path d="M3894 3076 c-3 -8 -40 -114 -83 -235 -68 -194 -76 -223 -62 -230 9
-5 74 -27 145 -51 100 -33 138 -41 173 -37 50 5 88 35 109 84 20 46 17 75 -11
116 l-24 37 34 16 c83 39 85 161 3 212 -26 16 -257 102 -274 102 -3 0 -7 -6
-10 -14z m228 -163 c24 -21 23 -48 -3 -74 -24 -24 -42 -22 -131 11 l-57 21 15
42 c8 23 16 48 19 55 5 14 127 -28 157 -55z m-143 -151 c88 -32 118 -63 102
-105 -19 -48 -48 -53 -141 -22 -48 16 -80 32 -77 39 2 6 12 35 21 64 10 28 18
52 19 52 1 0 35 -13 76 -28z"/>
<path d="M9558 2988 c-21 -6 -38 -15 -38 -21 0 -7 -9 -126 -20 -266 -11 -140
-18 -256 -16 -259 3 -3 25 1 50 8 39 11 44 15 50 48 3 21 6 49 6 63 0 24 7 28
96 54 l96 29 26 -34 c15 -19 32 -40 38 -48 8 -12 17 -12 55 -1 24 7 48 15 52
19 12 11 -320 420 -341 419 -9 -1 -34 -6 -54 -11z m131 -224 c23 -32 29 -45
19 -49 -50 -18 -101 -35 -107 -35 -3 0 -4 44 -3 97 l4 98 28 -33 c15 -18 42
-53 59 -78z"/>
<path d="M4318 2688 c-37 -134 -65 -244 -63 -246 9 -9 361 -99 367 -93 3 3 9
22 13 41 l6 36 -131 34 -132 35 6 38 c4 21 12 51 19 66 l12 29 118 -33 c65
-18 119 -29 121 -26 2 3 7 22 11 42 l7 35 -122 34 c-87 23 -120 36 -116 46 3
7 10 31 16 53 l10 39 108 -29 c59 -16 117 -32 129 -35 18 -5 25 0 33 22 20 52
15 55 -170 106 -96 26 -175 47 -176 48 0 0 -30 -109 -66 -242z"/>
<path d="M9167 2880 c-104 -27 -190 -50 -193 -52 -8 -9 9 -70 21 -74 7 -3 39
2 71 10 32 8 62 12 65 8 3 -4 28 -94 54 -199 27 -109 52 -193 59 -193 26 0 86
22 86 31 0 5 -20 90 -45 189 -25 99 -45 186 -45 194 0 9 24 20 69 31 l69 17
-10 41 c-5 23 -10 42 -11 43 -1 0 -87 -20 -190 -46z"/>
<path d="M8830 2803 c-14 -3 -28 -8 -33 -12 -4 -4 6 -74 23 -156 16 -81 28
-150 26 -152 -2 -2 -59 56 -127 129 l-124 133 -45 -3 c-24 -1 -47 -6 -51 -10
-6 -5 57 -350 86 -470 5 -22 9 -23 48 -17 23 4 43 9 45 10 2 2 -10 72 -27 156
-17 84 -30 154 -28 155 1 2 59 -58 127 -132 l125 -136 50 7 c27 3 51 8 53 10
2 2 -18 113 -45 246 -51 256 -49 252 -103 242z"/>
<path d="M4905 2779 c-60 -18 -95 -65 -95 -125 0 -61 33 -102 120 -151 130
-73 143 -90 99 -134 -18 -18 -30 -20 -70 -17 -59 6 -96 36 -105 85 -4 22 -12
33 -24 33 -10 0 -32 3 -49 6 -29 6 -31 5 -31 -22 0 -88 50 -151 142 -179 150
-44 258 15 258 142 0 46 -4 58 -32 88 -18 19 -69 54 -112 78 -88 47 -107 67
-90 95 9 12 25 17 62 17 56 -1 79 -15 99 -62 11 -27 19 -33 42 -33 16 0 36 -3
45 -6 13 -5 16 1 16 30 0 77 -52 130 -149 152 -64 16 -84 16 -126 3z"/>
<path d="M8297 2703 c-24 -4 -28 -8 -24 -26 3 -12 22 -125 43 -250 l37 -228
46 7 c25 4 48 8 51 11 2 2 -14 113 -36 246 -39 239 -40 242 -64 243 -14 1 -38
-1 -53 -3z"/>
<path d="M5363 2686 c-64 -29 -92 -120 -58 -187 18 -33 67 -67 138 -94 64 -24
97 -51 97 -79 0 -74 -137 -84 -180 -13 -11 18 -20 40 -20 50 0 14 -9 17 -50
17 -48 0 -50 -1 -50 -27 1 -70 53 -136 129 -161 50 -17 157 -15 197 4 59 28
92 106 74 173 -13 51 -45 78 -153 131 -78 38 -92 49 -95 72 -3 22 2 28 31 37
50 17 107 -4 127 -46 10 -21 24 -33 44 -37 58 -12 66 -9 66 28 0 44 -36 94
-84 119 -50 26 -168 33 -213 13z"/>
<path d="M7878 2642 c-64 -9 -119 -19 -122 -22 -2 -3 10 -115 27 -250 l32
-245 35 3 c71 6 68 2 54 105 -7 50 -13 98 -14 105 0 8 15 12 41 12 44 0 67
-19 173 -139 l38 -43 56 6 c31 4 58 8 60 11 7 7 -128 162 -153 175 -32 17 -31
22 4 38 60 27 85 103 57 176 -32 82 -91 96 -288 68z m177 -92 c21 -23 23 -66
4 -86 -15 -14 -165 -42 -175 -32 -3 4 -9 31 -13 62 -8 62 -10 60 64 69 75 10
102 7 120 -13z"/>
<path d="M5817 2394 c-65 -130 -117 -238 -115 -239 2 -2 26 -7 54 -10 l51 -7
23 57 23 56 76 -6 c130 -11 126 -8 144 -75 l17 -58 54 -4 c51 -3 55 -1 50 17
-3 11 -38 128 -77 260 l-72 240 -55 3 -55 3 -118 -237z m188 21 c10 -38 20
-76 23 -83 4 -11 -9 -12 -59 -6 -35 4 -65 8 -67 9 -2 2 13 40 34 84 20 45 40
78 44 74 4 -4 15 -39 25 -78z"/>
<path d="M7405 2598 c-71 -5 -131 -10 -132 -11 -1 -2 35 -501 36 -502 1 0 76
5 169 12 92 6 177 12 190 12 18 1 22 7 22 30 0 57 2 57 -145 47 -75 -5 -137
-7 -139 -5 -2 2 -6 32 -8 66 l-4 62 40 5 c23 3 79 8 126 11 l85 6 -3 42 -4 42
-120 -8 c-66 -5 -122 -6 -125 -3 -3 3 -8 28 -11 55 l-4 49 98 6 c55 4 116 9
137 12 36 6 37 7 37 45 l0 39 -57 -1 c-32 -1 -116 -6 -188 -11z"/>
<path d="M6316 2568 c-5 -29 -26 -406 -26 -450 0 -15 9 -18 49 -18 l49 0 6 78
c3 42 8 124 11 182 3 58 8 135 11 173 l6 67 -51 0 c-49 0 -50 -1 -55 -32z"/>
<path d="M6760 2330 l0 -252 168 4 c181 3 195 7 233 65 40 59 15 170 -42 188
-21 7 -21 7 -1 28 54 60 57 121 8 175 l-34 37 -166 3 -166 3 0 -251z m278 154
c12 -8 22 -26 22 -39 0 -48 -49 -69 -145 -63 l-50 3 -3 58 -3 57 78 0 c55 0
85 -5 101 -16z m2 -197 c35 -18 48 -59 27 -90 -18 -28 -84 -41 -160 -31 l-47
7 0 63 0 64 78 0 c42 0 88 -6 102 -13z"/>
</g>
</svg>
